<svg xmlns="http://www.w3.org/2000/svg" viewBox="0 0 512 512"><rect width="512" height="512" rx="112" fill="#e8c547"/><path d="M256 130 L132 366 L380 366 Z" fill="none" stroke="#161617" stroke-width="40" stroke-linejoin="round"/><rect x="206" y="50" width="100" height="156" rx="24" fill="#161617" stroke="#e8c547" stroke-width="22" stroke-linejoin="round" paint-order="stroke"/><rect x="228" y="76" width="56" height="84" rx="8" fill="#e8c547"/><circle cx="256" cy="182" r="9" fill="#e8c547"/><path d="M92 306 L180 306 Q212 306 212 338 L212 384 Q212 416 180 416 L128 416 L84 456 L84 416 Q52 414 52 384 L52 338 Q52 306 92 306 Z" fill="#161617" stroke="#e8c547" stroke-width="22" stroke-linejoin="round" paint-order="stroke"/><circle cx="96" cy="361" r="12" fill="#e8c547"/><circle cx="132" cy="361" r="12" fill="#e8c547"/><circle cx="168" cy="361" r="12" fill="#e8c547"/><rect x="304" y="310" width="156" height="112" rx="20" fill="#161617" stroke="#e8c547" stroke-width="22" stroke-linejoin="round" paint-order="stroke"/><path d="M324 336 L382 382 L440 336" fill="none" stroke="#e8c547" stroke-width="16" stroke-linecap="round" stroke-linejoin="round"/></svg>
